<?xml version="1.0" standalone="no"?>
<!DOCTYPE svg PUBLIC "-//W3C//DTD SVG 20010904//EN"
 "http://www.w3.org/TR/2001/REC-SVG-20010904/DTD/svg10.dtd">
<svg version="1.0" xmlns="http://www.w3.org/2000/svg"
 width="642.000000pt" height="642.000000pt" viewBox="0 0 642.000000 642.000000"
 preserveAspectRatio="xMidYMid meet">
<metadata>
Created by potrace 1.14, written by Peter Selinger 2001-2017
</metadata>
<g transform="translate(0.000000,642.000000) scale(0.100000,-0.100000)"
fill="#000000" stroke="none">
<path d="M0 3205 l0 -2915 3210 0 3210 0 0 2915 0 2915 -3210 0 -3210 0 0
-2915z m4652 2532 l1383 -2 0 -640 0 -640 -2802 0 c-2483 0 -2802 2 -2805 15
-2 8 -3 296 -3 640 l0 625 1408 0 c774 0 1407 3 1407 7 0 4 6 5 14 2 8 -3 637
-6 1398 -7z m-551 -1666 c3 0 5 -743 5 -1651 l0 -1650 -1843 0 -1843 0 0 28
c-1 160 -1 829 1 837 1 6 0 15 -1 20 -7 32 -6 56 2 61 4 3 6 10 2 15 -5 8 -8
355 -3 384 1 6 0 15 -1 20 -7 32 -6 56 2 61 4 3 6 10 2 15 -5 8 -8 1314 -3
1344 1 6 0 15 -1 20 -7 32 -6 56 2 61 4 3 6 10 2 15 -5 9 -6 86 -5 324 l1 100
1838 -1 c1010 -1 1839 -2 1843 -3z m1927 -8 c9 -14 9 -3279 1 -3288 -5 -5
-930 -8 -1470 -5 l-66 0 0 1647 c0 907 3 1650 7 1653 5 3 348 5 765 5 556 0
758 -3 763 -12z"/>
</g>
</svg>
